<svg width="467" height="196" viewBox="0 0 467 196" fill="none" xmlns="http://www.w3.org/2000/svg">
<g filter="url(#filter0_ddddd_301_152)">
<rect x="23" y="4" width="421" height="112" rx="56" fill="#202024"/>
<path d="M141.273 51V33.9375H145.691C146.48 33.9375 147.219 34.0352 147.906 34.2305C148.594 34.418 149.219 34.6875 149.781 35.0391C150.273 35.3281 150.711 35.6836 151.094 36.1055C151.484 36.5195 151.824 36.9727 152.113 37.4648C152.449 38.0664 152.707 38.7305 152.887 39.457C153.074 40.1836 153.168 40.957 153.168 41.7773V43.1836C153.168 43.9727 153.082 44.7188 152.91 45.4219C152.738 46.125 152.496 46.7695 152.184 47.3555C151.887 47.8789 151.539 48.3633 151.141 48.8086C150.742 49.2461 150.305 49.6133 149.828 49.9102C149.273 50.2617 148.66 50.5312 147.988 50.7188C147.324 50.9062 146.613 51 145.855 51H141.273ZM144.59 36.6094V48.3516H145.855C146.262 48.3516 146.641 48.3008 146.992 48.1992C147.344 48.0977 147.664 47.9492 147.953 47.7539C148.25 47.5508 148.516 47.293 148.75 46.9805C148.992 46.6602 149.199 46.2891 149.371 45.8672C149.512 45.5 149.617 45.0938 149.688 44.6484C149.766 44.1953 149.805 43.707 149.805 43.1836V41.7539C149.805 41.2617 149.766 40.7969 149.688 40.3594C149.617 39.9141 149.512 39.5078 149.371 39.1406C149.199 38.7031 148.973 38.3125 148.691 37.9688C148.418 37.625 148.098 37.3438 147.73 37.125C147.449 36.9609 147.137 36.8359 146.793 36.75C146.457 36.6562 146.09 36.6094 145.691 36.6094H144.59ZM162.027 51.2344C161.051 51.2344 160.164 51.0742 159.367 50.7539C158.57 50.4336 157.887 49.9961 157.316 49.4414C156.746 48.8945 156.305 48.25 155.992 47.5078C155.688 46.7578 155.535 45.957 155.535 45.1055V44.6367C155.535 43.668 155.688 42.7852 155.992 41.9883C156.297 41.1836 156.723 40.4922 157.27 39.9141C157.816 39.3359 158.465 38.8867 159.215 38.5664C159.965 38.2461 160.781 38.0859 161.664 38.0859C162.578 38.0859 163.391 38.2383 164.102 38.543C164.82 38.8398 165.43 39.2617 165.93 39.8086C166.422 40.3555 166.797 41.0156 167.055 41.7891C167.312 42.5547 167.441 43.4023 167.441 44.332V45.7148H158.84V45.75C158.949 46.2578 159.09 46.668 159.262 46.9805C159.434 47.2852 159.664 47.5625 159.953 47.8125C160.25 48.0703 160.59 48.2695 160.973 48.4102C161.355 48.5508 161.773 48.6211 162.227 48.6211C162.867 48.6211 163.488 48.5 164.09 48.2578C164.691 48.0156 165.18 47.6523 165.555 47.168L167.184 48.9258C166.77 49.5117 166.113 50.043 165.215 50.5195C164.316 50.9961 163.254 51.2344 162.027 51.2344ZM161.641 40.7227C161.273 40.7227 160.938 40.7891 160.633 40.9219C160.328 41.0469 160.062 41.2305 159.836 41.4727C159.602 41.7148 159.406 42.0039 159.25 42.3398C159.094 42.6758 158.977 43.0508 158.898 43.4648H164.242V43.207C164.242 42.8633 164.18 42.5391 164.055 42.2344C163.93 41.9297 163.758 41.6641 163.539 41.4375C163.32 41.2188 163.051 41.0469 162.73 40.9219C162.418 40.7891 162.055 40.7227 161.641 40.7227ZM174.32 51L169.48 38.3203H172.879L175.668 47.2617L175.844 48.1523L176.02 47.2617L178.797 38.3203H182.195L177.379 51H174.32ZM190.855 51.2344C189.879 51.2344 188.992 51.0742 188.195 50.7539C187.398 50.4336 186.715 49.9961 186.145 49.4414C185.574 48.8945 185.133 48.25 184.82 47.5078C184.516 46.7578 184.363 45.957 184.363 45.1055V44.6367C184.363 43.668 184.516 42.7852 184.82 41.9883C185.125 41.1836 185.551 40.4922 186.098 39.9141C186.645 39.3359 187.293 38.8867 188.043 38.5664C188.793 38.2461 189.609 38.0859 190.492 38.0859C191.406 38.0859 192.219 38.2383 192.93 38.543C193.648 38.8398 194.258 39.2617 194.758 39.8086C195.25 40.3555 195.625 41.0156 195.883 41.7891C196.141 42.5547 196.27 43.4023 196.27 44.332V45.7148H187.668V45.75C187.777 46.2578 187.918 46.668 188.09 46.9805C188.262 47.2852 188.492 47.5625 188.781 47.8125C189.078 48.0703 189.418 48.2695 189.801 48.4102C190.184 48.5508 190.602 48.6211 191.055 48.6211C191.695 48.6211 192.316 48.5 192.918 48.2578C193.52 48.0156 194.008 47.6523 194.383 47.168L196.012 48.9258C195.598 49.5117 194.941 50.043 194.043 50.5195C193.145 50.9961 192.082 51.2344 190.855 51.2344ZM190.469 40.7227C190.102 40.7227 189.766 40.7891 189.461 40.9219C189.156 41.0469 188.891 41.2305 188.664 41.4727C188.43 41.7148 188.234 42.0039 188.078 42.3398C187.922 42.6758 187.805 43.0508 187.727 43.4648H193.07V43.207C193.07 42.8633 193.008 42.5391 192.883 42.2344C192.758 41.9297 192.586 41.6641 192.367 41.4375C192.148 41.2188 191.879 41.0469 191.559 40.9219C191.246 40.7891 190.883 40.7227 190.469 40.7227ZM199.797 33H206.887V48.3516H210.52V51H199.797V48.3516H203.594V35.6602H199.797V33ZM213.086 44.543C213.086 43.6211 213.219 42.7695 213.484 41.9883C213.75 41.1992 214.141 40.5156 214.656 39.9375C215.164 39.3594 215.785 38.9062 216.52 38.5781C217.262 38.25 218.109 38.0859 219.062 38.0859C220.016 38.0859 220.863 38.25 221.605 38.5781C222.348 38.9062 222.977 39.3594 223.492 39.9375C224 40.5156 224.387 41.1992 224.652 41.9883C224.918 42.7695 225.051 43.6211 225.051 44.543V44.7891C225.051 45.7188 224.918 46.5781 224.652 47.3672C224.387 48.1484 224 48.8281 223.492 49.4062C222.984 49.9844 222.359 50.4375 221.617 50.7656C220.875 51.0859 220.031 51.2461 219.086 51.2461C218.133 51.2461 217.281 51.0859 216.531 50.7656C215.789 50.4375 215.164 49.9844 214.656 49.4062C214.141 48.8281 213.75 48.1484 213.484 47.3672C213.219 46.5781 213.086 45.7188 213.086 44.7891V44.543ZM216.344 44.7891C216.344 45.3203 216.395 45.8203 216.496 46.2891C216.598 46.75 216.758 47.1523 216.977 47.4961C217.195 47.8477 217.477 48.125 217.82 48.3281C218.172 48.5312 218.594 48.6328 219.086 48.6328C219.562 48.6328 219.973 48.5312 220.316 48.3281C220.66 48.125 220.941 47.8477 221.16 47.4961C221.371 47.1523 221.527 46.75 221.629 46.2891C221.73 45.8203 221.781 45.3203 221.781 44.7891V44.543C221.781 44.0273 221.73 43.5391 221.629 43.0781C221.527 42.6172 221.371 42.2109 221.16 41.8594C220.941 41.5078 220.66 41.2305 220.316 41.0273C219.973 40.8242 219.555 40.7227 219.062 40.7227C218.578 40.7227 218.164 40.8242 217.82 41.0273C217.477 41.2305 217.195 41.5078 216.977 41.8594C216.758 42.2109 216.598 42.6172 216.496 43.0781C216.395 43.5391 216.344 44.0273 216.344 44.543V44.7891ZM227.992 55.875V38.3203H231.004L231.121 39.5625C231.293 39.3516 231.48 39.1641 231.684 39C231.887 38.8281 232.105 38.6797 232.34 38.5547C232.621 38.4062 232.93 38.293 233.266 38.2148C233.609 38.1289 233.977 38.0859 234.367 38.0859C235.172 38.0859 235.883 38.2422 236.5 38.5547C237.117 38.8594 237.637 39.293 238.059 39.8555C238.48 40.4258 238.797 41.1094 239.008 41.9062C239.227 42.6953 239.336 43.5703 239.336 44.5312V44.7773C239.336 45.6992 239.227 46.5547 239.008 47.3438C238.797 48.1328 238.484 48.8125 238.07 49.3828C237.648 49.9609 237.129 50.4141 236.512 50.7422C235.895 51.0703 235.188 51.2344 234.391 51.2344C233.969 51.2344 233.578 51.1875 233.219 51.0938C232.867 51.0078 232.539 50.8789 232.234 50.707C232.055 50.5977 231.883 50.4766 231.719 50.3438C231.555 50.2109 231.398 50.0625 231.25 49.8984V55.875H227.992ZM236.078 44.5312C236.078 44 236.027 43.5039 235.926 43.043C235.832 42.5742 235.684 42.168 235.48 41.8242C235.27 41.4883 235 41.2227 234.672 41.0273C234.352 40.832 233.961 40.7344 233.5 40.7344C233.234 40.7344 232.992 40.7617 232.773 40.8164C232.555 40.8633 232.355 40.9336 232.176 41.0273C231.973 41.1367 231.793 41.2734 231.637 41.4375C231.488 41.6016 231.359 41.793 231.25 42.0117V47.3086C231.352 47.5117 231.473 47.6953 231.613 47.8594C231.762 48.0234 231.93 48.1641 232.117 48.2812C232.297 48.3906 232.504 48.4766 232.738 48.5391C232.973 48.5938 233.234 48.6211 233.523 48.6211C233.984 48.6211 234.375 48.5195 234.695 48.3164C235.023 48.1133 235.289 47.8359 235.492 47.4844C235.695 47.1328 235.844 46.7266 235.938 46.2656C236.031 45.7969 236.078 45.3008 236.078 44.7773V44.5312ZM248.512 51.2344C247.535 51.2344 246.648 51.0742 245.852 50.7539C245.055 50.4336 244.371 49.9961 243.801 49.4414C243.23 48.8945 242.789 48.25 242.477 47.5078C242.172 46.7578 242.02 45.957 242.02 45.1055V44.6367C242.02 43.668 242.172 42.7852 242.477 41.9883C242.781 41.1836 243.207 40.4922 243.754 39.9141C244.301 39.3359 244.949 38.8867 245.699 38.5664C246.449 38.2461 247.266 38.0859 248.148 38.0859C249.062 38.0859 249.875 38.2383 250.586 38.543C251.305 38.8398 251.914 39.2617 252.414 39.8086C252.906 40.3555 253.281 41.0156 253.539 41.7891C253.797 42.5547 253.926 43.4023 253.926 44.332V45.7148H245.324V45.75C245.434 46.2578 245.574 46.668 245.746 46.9805C245.918 47.2852 246.148 47.5625 246.438 47.8125C246.734 48.0703 247.074 48.2695 247.457 48.4102C247.84 48.5508 248.258 48.6211 248.711 48.6211C249.352 48.6211 249.973 48.5 250.574 48.2578C251.176 48.0156 251.664 47.6523 252.039 47.168L253.668 48.9258C253.254 49.5117 252.598 50.043 251.699 50.5195C250.801 50.9961 249.738 51.2344 248.512 51.2344ZM248.125 40.7227C247.758 40.7227 247.422 40.7891 247.117 40.9219C246.812 41.0469 246.547 41.2305 246.32 41.4727C246.086 41.7148 245.891 42.0039 245.734 42.3398C245.578 42.6758 245.461 43.0508 245.383 43.4648H250.727V43.207C250.727 42.8633 250.664 42.5391 250.539 42.2344C250.414 41.9297 250.242 41.6641 250.023 41.4375C249.805 41.2188 249.535 41.0469 249.215 40.9219C248.902 40.7891 248.539 40.7227 248.125 40.7227ZM256.434 44.5664C256.434 43.6055 256.543 42.7266 256.762 41.9297C256.988 41.1328 257.316 40.4492 257.746 39.8789C258.176 39.3086 258.695 38.8672 259.305 38.5547C259.922 38.2422 260.625 38.0859 261.414 38.0859C262.078 38.0859 262.66 38.207 263.16 38.4492C263.668 38.6836 264.117 39.0195 264.508 39.457V33H267.777V51H264.836L264.672 49.6758C264.273 50.168 263.805 50.5508 263.266 50.8242C262.727 51.0977 262.102 51.2344 261.391 51.2344C260.617 51.2344 259.922 51.0742 259.305 50.7539C258.695 50.4258 258.18 49.9766 257.758 49.4062C257.328 48.8359 257 48.1602 256.773 47.3789C256.547 46.5898 256.434 45.7344 256.434 44.8125V44.5664ZM259.691 44.8125C259.691 45.3438 259.734 45.8398 259.82 46.3008C259.914 46.7539 260.062 47.1484 260.266 47.4844C260.469 47.8281 260.73 48.0977 261.051 48.293C261.371 48.4883 261.762 48.5859 262.223 48.5859C262.785 48.5859 263.25 48.4648 263.617 48.2227C263.992 47.9805 264.289 47.6484 264.508 47.2266V42.0938C264.289 41.6641 263.996 41.332 263.629 41.0977C263.262 40.8555 262.801 40.7344 262.246 40.7344C261.785 40.7344 261.391 40.8359 261.062 41.0391C260.742 41.2344 260.48 41.5039 260.277 41.8477C260.074 42.1992 259.926 42.6094 259.832 43.0781C259.738 43.5391 259.691 44.0352 259.691 44.5664V44.8125ZM293.523 51C293.445 50.8438 293.379 50.6641 293.324 50.4609C293.27 50.2578 293.223 50.043 293.184 49.8164C293.004 50.0117 292.797 50.1953 292.562 50.3672C292.328 50.5391 292.07 50.6875 291.789 50.8125C291.5 50.9453 291.184 51.0469 290.84 51.1172C290.496 51.1953 290.125 51.2344 289.727 51.2344C289.078 51.2344 288.48 51.1406 287.934 50.9531C287.395 50.7656 286.93 50.5039 286.539 50.168C286.148 49.832 285.844 49.4336 285.625 48.9727C285.406 48.5039 285.297 47.9961 285.297 47.4492C285.297 46.7461 285.434 46.125 285.707 45.5859C285.98 45.0391 286.391 44.5898 286.938 44.2383C287.43 43.918 288.035 43.6758 288.754 43.5117C289.48 43.3398 290.312 43.2539 291.25 43.2539H293.066V42.5039C293.066 42.207 293.02 41.9414 292.926 41.707C292.832 41.4648 292.691 41.2578 292.504 41.0859C292.309 40.9062 292.062 40.7695 291.766 40.6758C291.477 40.5742 291.137 40.5234 290.746 40.5234C290.402 40.5234 290.105 40.5664 289.855 40.6523C289.605 40.7305 289.402 40.8438 289.246 40.9922C289.105 41.125 289 41.2852 288.93 41.4727C288.867 41.6602 288.836 41.8672 288.836 42.0938H285.578C285.578 41.5547 285.695 41.043 285.93 40.5586C286.172 40.0742 286.523 39.6484 286.984 39.2812C287.438 38.9141 287.992 38.625 288.648 38.4141C289.312 38.1953 290.07 38.0859 290.922 38.0859C291.688 38.0859 292.398 38.1797 293.055 38.3672C293.719 38.5547 294.293 38.832 294.777 39.1992C295.262 39.5664 295.641 40.0312 295.914 40.5938C296.188 41.1484 296.324 41.793 296.324 42.5273V47.9648C296.324 48.6445 296.367 49.207 296.453 49.6523C296.539 50.0977 296.664 50.4805 296.828 50.8008V51H293.523ZM290.418 48.7148C290.746 48.7148 291.051 48.6758 291.332 48.5977C291.613 48.5195 291.867 48.418 292.094 48.293C292.32 48.168 292.516 48.0273 292.68 47.8711C292.844 47.707 292.973 47.543 293.066 47.3789V45.1992H291.402C290.895 45.1992 290.461 45.25 290.102 45.3516C289.742 45.4453 289.449 45.5781 289.223 45.75C288.996 45.9297 288.828 46.1445 288.719 46.3945C288.609 46.6367 288.555 46.9023 288.555 47.1914C288.555 47.418 288.594 47.6289 288.672 47.8242C288.758 48.0117 288.879 48.1719 289.035 48.3047C289.191 48.4297 289.383 48.5312 289.609 48.6094C289.844 48.6797 290.113 48.7148 290.418 48.7148ZM300.016 51V38.3203H302.969L303.168 40.0781C303.332 39.8438 303.512 39.6289 303.707 39.4336C303.902 39.2383 304.109 39.0625 304.328 38.9062C304.703 38.6406 305.113 38.4375 305.559 38.2969C306.004 38.1562 306.477 38.0859 306.977 38.0859C307.617 38.0859 308.203 38.1797 308.734 38.3672C309.266 38.5547 309.727 38.8516 310.117 39.2578C310.5 39.6719 310.797 40.2031 311.008 40.8516C311.227 41.4922 311.336 42.2734 311.336 43.1953V51H308.078V43.2422C308.078 42.7422 308.02 42.332 307.902 42.0117C307.793 41.6836 307.633 41.4258 307.422 41.2383C307.211 41.0508 306.957 40.9219 306.66 40.8516C306.363 40.7734 306.027 40.7344 305.652 40.7344C305.34 40.7344 305.051 40.7695 304.785 40.8398C304.527 40.9102 304.297 41.0156 304.094 41.1562C303.93 41.2578 303.781 41.3789 303.648 41.5195C303.516 41.6602 303.395 41.8164 303.285 41.9883V51H300.016ZM314.09 44.5664C314.09 43.6055 314.199 42.7266 314.418 41.9297C314.645 41.1328 314.973 40.4492 315.402 39.8789C315.832 39.3086 316.352 38.8672 316.961 38.5547C317.578 38.2422 318.281 38.0859 319.07 38.0859C319.734 38.0859 320.316 38.207 320.816 38.4492C321.324 38.6836 321.773 39.0195 322.164 39.457V33H325.434V51H322.492L322.328 49.6758C321.93 50.168 321.461 50.5508 320.922 50.8242C320.383 51.0977 319.758 51.2344 319.047 51.2344C318.273 51.2344 317.578 51.0742 316.961 50.7539C316.352 50.4258 315.836 49.9766 315.414 49.4062C314.984 48.8359 314.656 48.1602 314.43 47.3789C314.203 46.5898 314.09 45.7344 314.09 44.8125V44.5664ZM317.348 44.8125C317.348 45.3438 317.391 45.8398 317.477 46.3008C317.57 46.7539 317.719 47.1484 317.922 47.4844C318.125 47.8281 318.387 48.0977 318.707 48.293C319.027 48.4883 319.418 48.5859 319.879 48.5859C320.441 48.5859 320.906 48.4648 321.273 48.2227C321.648 47.9805 321.945 47.6484 322.164 47.2266V42.0938C321.945 41.6641 321.652 41.332 321.285 41.0977C320.918 40.8555 320.457 40.7344 319.902 40.7344C319.441 40.7344 319.047 40.8359 318.719 41.0391C318.398 41.2344 318.137 41.5039 317.934 41.8477C317.73 42.1992 317.582 42.6094 317.488 43.0781C317.395 43.5391 317.348 44.0352 317.348 44.5664V44.8125ZM85.832 74.3203L85.9258 75.8555C86.168 75.3086 86.5 74.8789 86.9219 74.5664C87.3516 74.2461 87.8711 74.0859 88.4805 74.0859C88.7773 74.0859 89.043 74.1211 89.2773 74.1914C89.5117 74.2617 89.7148 74.3711 89.8867 74.5195C90.0195 74.6289 90.1328 74.7617 90.2266 74.918C90.3281 75.0664 90.4141 75.2383 90.4844 75.4336C90.5938 75.2461 90.7148 75.0781 90.8477 74.9297C90.9883 74.7734 91.1406 74.6406 91.3047 74.5312C91.5078 74.3906 91.7383 74.2812 91.9961 74.2031C92.2539 74.125 92.5352 74.0859 92.8398 74.0859C93.2227 74.0859 93.5781 74.1562 93.9062 74.2969C94.2422 74.4375 94.5352 74.6602 94.7852 74.9648C95.0273 75.2773 95.2148 75.6797 95.3477 76.1719C95.4883 76.6562 95.5586 77.25 95.5586 77.9531V87H92.5938V77.9414C92.5938 77.6992 92.5664 77.5 92.5117 77.3438C92.4648 77.1875 92.3984 77.0625 92.3125 76.9688C92.2266 76.8828 92.125 76.8242 92.0078 76.793C91.8984 76.7539 91.7852 76.7344 91.668 76.7344C91.543 76.7344 91.4297 76.75 91.3281 76.7812C91.2344 76.8125 91.1445 76.8555 91.0586 76.9102C90.9883 76.9648 90.9258 77.0273 90.8711 77.0977C90.8164 77.1602 90.7695 77.2344 90.7305 77.3203C90.7305 77.3359 90.7305 77.3711 90.7305 77.4258C90.7305 77.4805 90.7305 77.5547 90.7305 77.6484V87H87.8594V77.9297C87.8594 77.6875 87.8359 77.4883 87.7891 77.332C87.7422 77.1758 87.6797 77.0547 87.6016 76.9688C87.5156 76.8828 87.418 76.8242 87.3086 76.793C87.1992 76.7539 87.082 76.7344 86.957 76.7344C86.8164 76.7344 86.6914 76.7578 86.582 76.8047C86.4727 76.8516 86.375 76.918 86.2891 77.0039C86.2266 77.0664 86.1719 77.1406 86.125 77.2266C86.0781 77.3125 86.0352 77.4062 85.9961 77.5078V87H83.0312V74.3203H85.832ZM106.141 87C106.062 86.8438 105.996 86.6641 105.941 86.4609C105.887 86.2578 105.84 86.043 105.801 85.8164C105.621 86.0117 105.414 86.1953 105.18 86.3672C104.945 86.5391 104.688 86.6875 104.406 86.8125C104.117 86.9453 103.801 87.0469 103.457 87.1172C103.113 87.1953 102.742 87.2344 102.344 87.2344C101.695 87.2344 101.098 87.1406 100.551 86.9531C100.012 86.7656 99.5469 86.5039 99.1562 86.168C98.7656 85.832 98.4609 85.4336 98.2422 84.9727C98.0234 84.5039 97.9141 83.9961 97.9141 83.4492C97.9141 82.7461 98.0508 82.125 98.3242 81.5859C98.5977 81.0391 99.0078 80.5898 99.5547 80.2383C100.047 79.918 100.652 79.6758 101.371 79.5117C102.098 79.3398 102.93 79.2539 103.867 79.2539H105.684V78.5039C105.684 78.207 105.637 77.9414 105.543 77.707C105.449 77.4648 105.309 77.2578 105.121 77.0859C104.926 76.9062 104.68 76.7695 104.383 76.6758C104.094 76.5742 103.754 76.5234 103.363 76.5234C103.02 76.5234 102.723 76.5664 102.473 76.6523C102.223 76.7305 102.02 76.8438 101.863 76.9922C101.723 77.125 101.617 77.2852 101.547 77.4727C101.484 77.6602 101.453 77.8672 101.453 78.0938H98.1953C98.1953 77.5547 98.3125 77.043 98.5469 76.5586C98.7891 76.0742 99.1406 75.6484 99.6016 75.2812C100.055 74.9141 100.609 74.625 101.266 74.4141C101.93 74.1953 102.688 74.0859 103.539 74.0859C104.305 74.0859 105.016 74.1797 105.672 74.3672C106.336 74.5547 106.91 74.832 107.395 75.1992C107.879 75.5664 108.258 76.0312 108.531 76.5938C108.805 77.1484 108.941 77.793 108.941 78.5273V83.9648C108.941 84.6445 108.984 85.207 109.07 85.6523C109.156 86.0977 109.281 86.4805 109.445 86.8008V87H106.141ZM103.035 84.7148C103.363 84.7148 103.668 84.6758 103.949 84.5977C104.23 84.5195 104.484 84.418 104.711 84.293C104.938 84.168 105.133 84.0273 105.297 83.8711C105.461 83.707 105.59 83.543 105.684 83.3789V81.1992H104.02C103.512 81.1992 103.078 81.25 102.719 81.3516C102.359 81.4453 102.066 81.5781 101.84 81.75C101.613 81.9297 101.445 82.1445 101.336 82.3945C101.227 82.6367 101.172 82.9023 101.172 83.1914C101.172 83.418 101.211 83.6289 101.289 83.8242C101.375 84.0117 101.496 84.1719 101.652 84.3047C101.809 84.4297 102 84.5312 102.227 84.6094C102.461 84.6797 102.73 84.7148 103.035 84.7148ZM113.5 74.3203H120.402V84.3516H123.836V87H113.5V84.3516H117.109V76.9805H113.5V74.3203ZM116.875 71.0742C116.875 70.8242 116.918 70.5938 117.004 70.3828C117.098 70.1641 117.227 69.9766 117.391 69.8203C117.555 69.6719 117.75 69.5547 117.977 69.4688C118.211 69.3828 118.469 69.3398 118.75 69.3398C119.328 69.3398 119.785 69.5039 120.121 69.832C120.465 70.1523 120.637 70.5664 120.637 71.0742C120.637 71.582 120.465 72 120.121 72.3281C119.785 72.6484 119.328 72.8086 118.75 72.8086C118.469 72.8086 118.211 72.7656 117.977 72.6797C117.75 72.5938 117.555 72.4727 117.391 72.3164C117.227 72.168 117.098 71.9883 117.004 71.7773C116.918 71.5586 116.875 71.3242 116.875 71.0742ZM127.047 87V74.3203H130L130.199 76.0781C130.363 75.8438 130.543 75.6289 130.738 75.4336C130.934 75.2383 131.141 75.0625 131.359 74.9062C131.734 74.6406 132.145 74.4375 132.59 74.2969C133.035 74.1562 133.508 74.0859 134.008 74.0859C134.648 74.0859 135.234 74.1797 135.766 74.3672C136.297 74.5547 136.758 74.8516 137.148 75.2578C137.531 75.6719 137.828 76.2031 138.039 76.8516C138.258 77.4922 138.367 78.2734 138.367 79.1953V87H135.109V79.2422C135.109 78.7422 135.051 78.332 134.934 78.0117C134.824 77.6836 134.664 77.4258 134.453 77.2383C134.242 77.0508 133.988 76.9219 133.691 76.8516C133.395 76.7734 133.059 76.7344 132.684 76.7344C132.371 76.7344 132.082 76.7695 131.816 76.8398C131.559 76.9102 131.328 77.0156 131.125 77.1562C130.961 77.2578 130.812 77.3789 130.68 77.5195C130.547 77.6602 130.426 77.8164 130.316 77.9883V87H127.047ZM147.438 71.2148V74.3203H152.172V76.7227H147.438V82.1719C147.438 82.6328 147.488 83.0195 147.59 83.332C147.699 83.6367 147.852 83.8789 148.047 84.0586C148.242 84.2461 148.477 84.3789 148.75 84.457C149.031 84.5352 149.344 84.5742 149.688 84.5742C149.938 84.5742 150.191 84.5625 150.449 84.5391C150.715 84.5156 150.969 84.4844 151.211 84.4453C151.445 84.4141 151.664 84.3789 151.867 84.3398C152.078 84.3008 152.258 84.2617 152.406 84.2227L152.723 86.4609C152.496 86.5938 152.23 86.7109 151.926 86.8125C151.621 86.9062 151.297 86.9844 150.953 87.0469C150.609 87.1094 150.25 87.1562 149.875 87.1875C149.508 87.2266 149.145 87.2461 148.785 87.2461C148.09 87.2461 147.457 87.1562 146.887 86.9766C146.324 86.7891 145.844 86.5 145.445 86.1094C145.039 85.7266 144.727 85.2383 144.508 84.6445C144.289 84.043 144.18 83.3242 144.18 82.4883V76.7227H141.285V74.3203H144.18V71.2148H147.438ZM163.797 87C163.719 86.8438 163.652 86.6641 163.598 86.4609C163.543 86.2578 163.496 86.043 163.457 85.8164C163.277 86.0117 163.07 86.1953 162.836 86.3672C162.602 86.5391 162.344 86.6875 162.062 86.8125C161.773 86.9453 161.457 87.0469 161.113 87.1172C160.77 87.1953 160.398 87.2344 160 87.2344C159.352 87.2344 158.754 87.1406 158.207 86.9531C157.668 86.7656 157.203 86.5039 156.812 86.168C156.422 85.832 156.117 85.4336 155.898 84.9727C155.68 84.5039 155.57 83.9961 155.57 83.4492C155.57 82.7461 155.707 82.125 155.98 81.5859C156.254 81.0391 156.664 80.5898 157.211 80.2383C157.703 79.918 158.309 79.6758 159.027 79.5117C159.754 79.3398 160.586 79.2539 161.523 79.2539H163.34V78.5039C163.34 78.207 163.293 77.9414 163.199 77.707C163.105 77.4648 162.965 77.2578 162.777 77.0859C162.582 76.9062 162.336 76.7695 162.039 76.6758C161.75 76.5742 161.41 76.5234 161.02 76.5234C160.676 76.5234 160.379 76.5664 160.129 76.6523C159.879 76.7305 159.676 76.8438 159.52 76.9922C159.379 77.125 159.273 77.2852 159.203 77.4727C159.141 77.6602 159.109 77.8672 159.109 78.0938H155.852C155.852 77.5547 155.969 77.043 156.203 76.5586C156.445 76.0742 156.797 75.6484 157.258 75.2812C157.711 74.9141 158.266 74.625 158.922 74.4141C159.586 74.1953 160.344 74.0859 161.195 74.0859C161.961 74.0859 162.672 74.1797 163.328 74.3672C163.992 74.5547 164.566 74.832 165.051 75.1992C165.535 75.5664 165.914 76.0312 166.188 76.5938C166.461 77.1484 166.598 77.793 166.598 78.5273V83.9648C166.598 84.6445 166.641 85.207 166.727 85.6523C166.812 86.0977 166.938 86.4805 167.102 86.8008V87H163.797ZM160.691 84.7148C161.02 84.7148 161.324 84.6758 161.605 84.5977C161.887 84.5195 162.141 84.418 162.367 84.293C162.594 84.168 162.789 84.0273 162.953 83.8711C163.117 83.707 163.246 83.543 163.34 83.3789V81.1992H161.676C161.168 81.1992 160.734 81.25 160.375 81.3516C160.016 81.4453 159.723 81.5781 159.496 81.75C159.27 81.9297 159.102 82.1445 158.992 82.3945C158.883 82.6367 158.828 82.9023 158.828 83.1914C158.828 83.418 158.867 83.6289 158.945 83.8242C159.031 84.0117 159.152 84.1719 159.309 84.3047C159.465 84.4297 159.656 84.5312 159.883 84.6094C160.117 84.6797 160.387 84.7148 160.691 84.7148ZM171.156 74.3203H178.059V84.3516H181.492V87H171.156V84.3516H174.766V76.9805H171.156V74.3203ZM174.531 71.0742C174.531 70.8242 174.574 70.5938 174.66 70.3828C174.754 70.1641 174.883 69.9766 175.047 69.8203C175.211 69.6719 175.406 69.5547 175.633 69.4688C175.867 69.3828 176.125 69.3398 176.406 69.3398C176.984 69.3398 177.441 69.5039 177.777 69.832C178.121 70.1523 178.293 70.5664 178.293 71.0742C178.293 71.582 178.121 72 177.777 72.3281C177.441 72.6484 176.984 72.8086 176.406 72.8086C176.125 72.8086 175.867 72.7656 175.633 72.6797C175.406 72.5938 175.211 72.4727 175.047 72.3164C174.883 72.168 174.754 71.9883 174.66 71.7773C174.574 71.5586 174.531 71.3242 174.531 71.0742ZM184.703 87V74.3203H187.656L187.855 76.0781C188.02 75.8438 188.199 75.6289 188.395 75.4336C188.59 75.2383 188.797 75.0625 189.016 74.9062C189.391 74.6406 189.801 74.4375 190.246 74.2969C190.691 74.1562 191.164 74.0859 191.664 74.0859C192.305 74.0859 192.891 74.1797 193.422 74.3672C193.953 74.5547 194.414 74.8516 194.805 75.2578C195.188 75.6719 195.484 76.2031 195.695 76.8516C195.914 77.4922 196.023 78.2734 196.023 79.1953V87H192.766V79.2422C192.766 78.7422 192.707 78.332 192.59 78.0117C192.48 77.6836 192.32 77.4258 192.109 77.2383C191.898 77.0508 191.645 76.9219 191.348 76.8516C191.051 76.7734 190.715 76.7344 190.34 76.7344C190.027 76.7344 189.738 76.7695 189.473 76.8398C189.215 76.9102 188.984 77.0156 188.781 77.1562C188.617 77.2578 188.469 77.3789 188.336 77.5195C188.203 77.6602 188.082 77.8164 187.973 77.9883V87H184.703ZM205.27 87.2344C204.293 87.2344 203.406 87.0742 202.609 86.7539C201.812 86.4336 201.129 85.9961 200.559 85.4414C199.988 84.8945 199.547 84.25 199.234 83.5078C198.93 82.7578 198.777 81.957 198.777 81.1055V80.6367C198.777 79.668 198.93 78.7852 199.234 77.9883C199.539 77.1836 199.965 76.4922 200.512 75.9141C201.059 75.3359 201.707 74.8867 202.457 74.5664C203.207 74.2461 204.023 74.0859 204.906 74.0859C205.82 74.0859 206.633 74.2383 207.344 74.543C208.062 74.8398 208.672 75.2617 209.172 75.8086C209.664 76.3555 210.039 77.0156 210.297 77.7891C210.555 78.5547 210.684 79.4023 210.684 80.332V81.7148H202.082V81.75C202.191 82.2578 202.332 82.668 202.504 82.9805C202.676 83.2852 202.906 83.5625 203.195 83.8125C203.492 84.0703 203.832 84.2695 204.215 84.4102C204.598 84.5508 205.016 84.6211 205.469 84.6211C206.109 84.6211 206.73 84.5 207.332 84.2578C207.934 84.0156 208.422 83.6523 208.797 83.168L210.426 84.9258C210.012 85.5117 209.355 86.043 208.457 86.5195C207.559 86.9961 206.496 87.2344 205.27 87.2344ZM204.883 76.7227C204.516 76.7227 204.18 76.7891 203.875 76.9219C203.57 77.0469 203.305 77.2305 203.078 77.4727C202.844 77.7148 202.648 78.0039 202.492 78.3398C202.336 78.6758 202.219 79.0508 202.141 79.4648H207.484V79.207C207.484 78.8633 207.422 78.5391 207.297 78.2344C207.172 77.9297 207 77.6641 206.781 77.4375C206.562 77.2188 206.293 77.0469 205.973 76.9219C205.66 76.7891 205.297 76.7227 204.883 76.7227ZM213.191 80.5664C213.191 79.6055 213.301 78.7266 213.52 77.9297C213.746 77.1328 214.074 76.4492 214.504 75.8789C214.934 75.3086 215.453 74.8672 216.062 74.5547C216.68 74.2422 217.383 74.0859 218.172 74.0859C218.836 74.0859 219.418 74.207 219.918 74.4492C220.426 74.6836 220.875 75.0195 221.266 75.457V69H224.535V87H221.594L221.43 85.6758C221.031 86.168 220.562 86.5508 220.023 86.8242C219.484 87.0977 218.859 87.2344 218.148 87.2344C217.375 87.2344 216.68 87.0742 216.062 86.7539C215.453 86.4258 214.938 85.9766 214.516 85.4062C214.086 84.8359 213.758 84.1602 213.531 83.3789C213.305 82.5898 213.191 81.7344 213.191 80.8125V80.5664ZM216.449 80.8125C216.449 81.3438 216.492 81.8398 216.578 82.3008C216.672 82.7539 216.82 83.1484 217.023 83.4844C217.227 83.8281 217.488 84.0977 217.809 84.293C218.129 84.4883 218.52 84.5859 218.98 84.5859C219.543 84.5859 220.008 84.4648 220.375 84.2227C220.75 83.9805 221.047 83.6484 221.266 83.2266V78.0938C221.047 77.6641 220.754 77.332 220.387 77.0977C220.02 76.8555 219.559 76.7344 219.004 76.7344C218.543 76.7344 218.148 76.8359 217.82 77.0391C217.5 77.2344 217.238 77.5039 217.035 77.8477C216.832 78.1992 216.684 78.6094 216.59 79.0781C216.496 79.5391 216.449 80.0352 216.449 80.5664V80.8125ZM253.785 80.7891C253.785 81.3984 253.742 81.9766 253.656 82.5234C253.57 83.0625 253.445 83.5625 253.281 84.0234C253.102 84.5312 252.863 84.9922 252.566 85.4062C252.277 85.8203 251.934 86.1641 251.535 86.4375C251.176 86.6953 250.77 86.8906 250.316 87.0234C249.871 87.1641 249.379 87.2344 248.84 87.2344C248.348 87.2344 247.898 87.1719 247.492 87.0469C247.094 86.9297 246.734 86.7539 246.414 86.5195C246.242 86.4023 246.082 86.2734 245.934 86.1328C245.785 85.9844 245.645 85.8242 245.512 85.6523L245.359 87H242.43V69H245.688V75.4688C245.844 75.2891 246.012 75.125 246.191 74.9766C246.371 74.8203 246.562 74.6875 246.766 74.5781C247.055 74.4141 247.367 74.293 247.703 74.2148C248.047 74.1289 248.418 74.0859 248.816 74.0859C249.363 74.0859 249.863 74.1562 250.316 74.2969C250.777 74.4375 251.188 74.6406 251.547 74.9062C251.836 75.1094 252.098 75.3555 252.332 75.6445C252.566 75.9258 252.773 76.2344 252.953 76.5703C253.234 77.1094 253.441 77.7148 253.574 78.3867C253.715 79.0586 253.785 79.7773 253.785 80.543V80.7891ZM250.527 80.543C250.527 80.207 250.512 79.8828 250.48 79.5703C250.449 79.2578 250.398 78.9648 250.328 78.6914C250.242 78.3711 250.129 78.0859 249.988 77.8359C249.855 77.5781 249.652 77.3438 249.379 77.1328C249.199 77 248.996 76.9023 248.77 76.8398C248.543 76.7695 248.285 76.7344 247.996 76.7344C247.605 76.7344 247.262 76.7891 246.965 76.8984C246.668 77.0078 246.414 77.168 246.203 77.3789C246.102 77.4805 246.008 77.5977 245.922 77.7305C245.836 77.8555 245.758 77.9922 245.688 78.1406V83.1914C245.781 83.3867 245.887 83.5664 246.004 83.7305C246.129 83.8867 246.273 84.0234 246.438 84.1406C246.633 84.2891 246.859 84.4023 247.117 84.4805C247.383 84.5586 247.684 84.5977 248.02 84.5977C248.309 84.5977 248.57 84.5625 248.805 84.4922C249.039 84.4219 249.242 84.3242 249.414 84.1992C249.656 84.0273 249.852 83.8047 250 83.5312C250.156 83.25 250.273 82.9336 250.352 82.582C250.414 82.3242 250.457 82.043 250.48 81.7383C250.512 81.4336 250.527 81.1172 250.527 80.7891V80.543ZM258.777 92.1211C258.465 92.1211 258.191 92.1016 257.957 92.0625C257.73 92.0234 257.477 91.9648 257.195 91.8867L257.594 89.4023C257.727 89.4023 257.895 89.4062 258.098 89.4141C258.309 89.4297 258.477 89.4375 258.602 89.4375C258.859 89.4375 259.086 89.3555 259.281 89.1914C259.484 89.0352 259.656 88.8633 259.797 88.6758C259.938 88.4883 260.039 88.3477 260.102 88.2539C260.172 88.1602 260.254 88.0273 260.348 87.8555L261.098 86.4609L255.73 74.3203H259.293L262.199 81.75L262.551 83.0391L263.031 81.7734L265.926 74.3203H269.523L263.09 88.8984C262.949 89.2188 262.766 89.5664 262.539 89.9414C262.32 90.3164 262.043 90.6641 261.707 90.9844C261.371 91.3047 260.961 91.5742 260.477 91.793C260 92.0117 259.434 92.1211 258.777 92.1211ZM293.875 83.4375H288.754L287.746 87H284.277L289.867 69.9375H292.855L298.34 87H294.871L293.875 83.4375ZM289.562 80.6367H293.102L291.355 74.3555L289.562 80.6367ZM300.883 74.3203H307.785V84.3516H311.219V87H300.883V84.3516H304.492V76.9805H300.883V74.3203ZM304.258 71.0742C304.258 70.8242 304.301 70.5938 304.387 70.3828C304.48 70.1641 304.609 69.9766 304.773 69.8203C304.938 69.6719 305.133 69.5547 305.359 69.4688C305.594 69.3828 305.852 69.3398 306.133 69.3398C306.711 69.3398 307.168 69.5039 307.504 69.832C307.848 70.1523 308.02 70.5664 308.02 71.0742C308.02 71.582 307.848 72 307.504 72.3281C307.168 72.6484 306.711 72.8086 306.133 72.8086C305.852 72.8086 305.594 72.7656 305.359 72.6797C305.133 72.5938 304.938 72.4727 304.773 72.3164C304.609 72.168 304.48 71.9883 304.387 71.7773C304.301 71.5586 304.258 71.3242 304.258 71.0742ZM325.844 80.7891H316.082V78.1523H325.844V80.7891ZM328.656 87V69.9375H333.074C333.863 69.9375 334.602 70.0352 335.289 70.2305C335.977 70.418 336.602 70.6875 337.164 71.0391C337.656 71.3281 338.094 71.6836 338.477 72.1055C338.867 72.5195 339.207 72.9727 339.496 73.4648C339.832 74.0664 340.09 74.7305 340.27 75.457C340.457 76.1836 340.551 76.957 340.551 77.7773V79.1836C340.551 79.9727 340.465 80.7188 340.293 81.4219C340.121 82.125 339.879 82.7695 339.566 83.3555C339.27 83.8789 338.922 84.3633 338.523 84.8086C338.125 85.2461 337.688 85.6133 337.211 85.9102C336.656 86.2617 336.043 86.5312 335.371 86.7188C334.707 86.9062 333.996 87 333.238 87H328.656ZM331.973 72.6094V84.3516H333.238C333.645 84.3516 334.023 84.3008 334.375 84.1992C334.727 84.0977 335.047 83.9492 335.336 83.7539C335.633 83.5508 335.898 83.293 336.133 82.9805C336.375 82.6602 336.582 82.2891 336.754 81.8672C336.895 81.5 337 81.0938 337.07 80.6484C337.148 80.1953 337.188 79.707 337.188 79.1836V77.7539C337.188 77.2617 337.148 76.7969 337.07 76.3594C337 75.9141 336.895 75.5078 336.754 75.1406C336.582 74.7031 336.355 74.3125 336.074 73.9688C335.801 73.625 335.48 73.3438 335.113 73.125C334.832 72.9609 334.52 72.8359 334.176 72.75C333.84 72.6562 333.473 72.6094 333.074 72.6094H331.973ZM349.41 87.2344C348.434 87.2344 347.547 87.0742 346.75 86.7539C345.953 86.4336 345.27 85.9961 344.699 85.4414C344.129 84.8945 343.688 84.25 343.375 83.5078C343.07 82.7578 342.918 81.957 342.918 81.1055V80.6367C342.918 79.668 343.07 78.7852 343.375 77.9883C343.68 77.1836 344.105 76.4922 344.652 75.9141C345.199 75.3359 345.848 74.8867 346.598 74.5664C347.348 74.2461 348.164 74.0859 349.047 74.0859C349.961 74.0859 350.773 74.2383 351.484 74.543C352.203 74.8398 352.812 75.2617 353.312 75.8086C353.805 76.3555 354.18 77.0156 354.438 77.7891C354.695 78.5547 354.824 79.4023 354.824 80.332V81.7148H346.223V81.75C346.332 82.2578 346.473 82.668 346.645 82.9805C346.816 83.2852 347.047 83.5625 347.336 83.8125C347.633 84.0703 347.973 84.2695 348.355 84.4102C348.738 84.5508 349.156 84.6211 349.609 84.6211C350.25 84.6211 350.871 84.5 351.473 84.2578C352.074 84.0156 352.562 83.6523 352.938 83.168L354.566 84.9258C354.152 85.5117 353.496 86.043 352.598 86.5195C351.699 86.9961 350.637 87.2344 349.41 87.2344ZM349.023 76.7227C348.656 76.7227 348.32 76.7891 348.016 76.9219C347.711 77.0469 347.445 77.2305 347.219 77.4727C346.984 77.7148 346.789 78.0039 346.633 78.3398C346.477 78.6758 346.359 79.0508 346.281 79.4648H351.625V79.207C351.625 78.8633 351.562 78.5391 351.438 78.2344C351.312 77.9297 351.141 77.6641 350.922 77.4375C350.703 77.2188 350.434 77.0469 350.113 76.9219C349.801 76.7891 349.438 76.7227 349.023 76.7227ZM361.703 87L356.863 74.3203H360.262L363.051 83.2617L363.227 84.1523L363.402 83.2617L366.18 74.3203H369.578L364.762 87H361.703ZM380.266 83.5195C380.266 83.3242 380.219 83.1523 380.125 83.0039C380.039 82.8555 379.883 82.7148 379.656 82.582C379.422 82.457 379.113 82.3398 378.73 82.2305C378.348 82.1211 377.863 82.0117 377.277 81.9023C376.535 81.7539 375.855 81.5703 375.238 81.3516C374.629 81.125 374.105 80.8516 373.668 80.5312C373.23 80.2188 372.887 79.8555 372.637 79.4414C372.395 79.0273 372.273 78.5508 372.273 78.0117C372.273 77.4883 372.398 76.9883 372.648 76.5117C372.898 76.0352 373.258 75.6172 373.727 75.2578C374.195 74.8984 374.766 74.6133 375.438 74.4023C376.109 74.1914 376.867 74.0859 377.711 74.0859C378.594 74.0859 379.387 74.1914 380.09 74.4023C380.793 74.6055 381.391 74.8867 381.883 75.2461C382.367 75.6133 382.738 76.0469 382.996 76.5469C383.254 77.0469 383.383 77.5898 383.383 78.1758H380.125C380.125 77.9648 380.09 77.7695 380.02 77.5898C379.949 77.4023 379.844 77.2344 379.703 77.0859C379.508 76.8906 379.242 76.7344 378.906 76.6172C378.578 76.5 378.18 76.4414 377.711 76.4414C377.312 76.4414 376.965 76.4805 376.668 76.5586C376.371 76.6367 376.129 76.7461 375.941 76.8867C375.77 77.0117 375.637 77.1602 375.543 77.332C375.457 77.4961 375.414 77.6719 375.414 77.8594C375.414 78.0469 375.453 78.2227 375.531 78.3867C375.609 78.543 375.75 78.6836 375.953 78.8086C376.148 78.9414 376.418 79.0625 376.762 79.1719C377.105 79.2734 377.543 79.3633 378.074 79.4414C378.84 79.5664 379.551 79.7266 380.207 79.9219C380.863 80.1172 381.43 80.3672 381.906 80.6719C382.383 80.9844 382.754 81.3633 383.02 81.8086C383.293 82.2461 383.43 82.7695 383.43 83.3789C383.43 83.9414 383.293 84.4609 383.02 84.9375C382.754 85.4062 382.375 85.8125 381.883 86.1562C381.383 86.5 380.781 86.7695 380.078 86.9648C379.375 87.1523 378.59 87.2461 377.723 87.2461C376.77 87.2461 375.926 87.1211 375.191 86.8711C374.465 86.6211 373.855 86.293 373.363 85.8867C372.871 85.4883 372.496 85.0352 372.238 84.5273C371.988 84.0117 371.863 83.4961 371.863 82.9805H374.969C374.992 83.3242 375.086 83.6211 375.25 83.8711C375.414 84.1133 375.625 84.3086 375.883 84.457C376.141 84.6133 376.434 84.7266 376.762 84.7969C377.098 84.8672 377.441 84.9023 377.793 84.9023C378.215 84.9023 378.582 84.8672 378.895 84.7969C379.215 84.7188 379.477 84.6172 379.68 84.4922C379.875 84.3672 380.02 84.2227 380.113 84.0586C380.215 83.8945 380.266 83.7148 380.266 83.5195Z" fill="#9A7FD7"/>
</g>
<defs>
<filter id="filter0_ddddd_301_152" x="0" y="0" width="467" height="196" filterUnits="userSpaceOnUse" color-interpolation-filters="sRGB">
<feFlood flood-opacity="0" result="BackgroundImageFix"/>
<feColorMatrix in="SourceAlpha" type="matrix" values="0 0 0 0 0 0 0 0 0 0 0 0 0 0 0 0 0 0 127 0" result="hardAlpha"/>
<feOffset/>
<feColorMatrix type="matrix" values="0 0 0 0 0 0 0 0 0 0 0 0 0 0 0 0 0 0 0.15 0"/>
<feBlend mode="normal" in2="BackgroundImageFix" result="effect1_dropShadow_301_152"/>
<feColorMatrix in="SourceAlpha" type="matrix" values="0 0 0 0 0 0 0 0 0 0 0 0 0 0 0 0 0 0 127 0" result="hardAlpha"/>
<feOffset dy="4"/>
<feGaussianBlur stdDeviation="4"/>
<feColorMatrix type="matrix" values="0 0 0 0 0 0 0 0 0 0 0 0 0 0 0 0 0 0 0.15 0"/>
<feBlend mode="normal" in2="effect1_dropShadow_301_152" result="effect2_dropShadow_301_152"/>
<feColorMatrix in="SourceAlpha" type="matrix" values="0 0 0 0 0 0 0 0 0 0 0 0 0 0 0 0 0 0 127 0" result="hardAlpha"/>
<feOffset dy="14"/>
<feGaussianBlur stdDeviation="7"/>
<feColorMatrix type="matrix" values="0 0 0 0 0 0 0 0 0 0 0 0 0 0 0 0 0 0 0.13 0"/>
<feBlend mode="normal" in2="effect2_dropShadow_301_152" result="effect3_dropShadow_301_152"/>
<feColorMatrix in="SourceAlpha" type="matrix" values="0 0 0 0 0 0 0 0 0 0 0 0 0 0 0 0 0 0 127 0" result="hardAlpha"/>
<feOffset dy="32"/>
<feGaussianBlur stdDeviation="9.5"/>
<feColorMatrix type="matrix" values="0 0 0 0 0 0 0 0 0 0 0 0 0 0 0 0 0 0 0.08 0"/>
<feBlend mode="normal" in2="effect3_dropShadow_301_152" result="effect4_dropShadow_301_152"/>
<feColorMatrix in="SourceAlpha" type="matrix" values="0 0 0 0 0 0 0 0 0 0 0 0 0 0 0 0 0 0 127 0" result="hardAlpha"/>
<feOffset dy="57"/>
<feGaussianBlur stdDeviation="11.5"/>
<feColorMatrix type="matrix" values="0 0 0 0 0 0 0 0 0 0 0 0 0 0 0 0 0 0 0.02 0"/>
<feBlend mode="normal" in2="effect4_dropShadow_301_152" result="effect5_dropShadow_301_152"/>
<feBlend mode="normal" in="SourceGraphic" in2="effect5_dropShadow_301_152" result="shape"/>
</filter>
</defs>
</svg>
